<svg xmlns="http://www.w3.org/2000/svg" viewBox="0 0 859.09 929.66"><defs><style>.cls-1{fill:#ee7120;}.cls-2{fill:#36a9e1;stroke:#ee7120;stroke-miterlimit:10;stroke-width:10.38px;}.cls-3{fill:#00983a;}.cls-4{font-size:91.3px;letter-spacing:0.02em;}.cls-10,.cls-11,.cls-12,.cls-13,.cls-14,.cls-15,.cls-16,.cls-17,.cls-18,.cls-19,.cls-20,.cls-21,.cls-22,.cls-23,.cls-24,.cls-25,.cls-26,.cls-27,.cls-28,.cls-29,.cls-4,.cls-5,.cls-6,.cls-7,.cls-8,.cls-9{fill:#1d1d1b;font-family:MyriadPro-Regular, Myriad Pro;}.cls-5{font-size:91.1px;letter-spacing:0.02em;}.cls-6{font-size:90.92px;letter-spacing:0.02em;}.cls-7{font-size:89.94px;letter-spacing:0.02em;}.cls-8{font-size:90.99px;letter-spacing:0.02em;}.cls-9{font-size:88.78px;letter-spacing:0.02em;}.cls-10{font-size:87.75px;letter-spacing:0.02em;}.cls-11{font-size:85.84px;letter-spacing:0.02em;}.cls-12{font-size:85.45px;letter-spacing:0.02em;}.cls-13{font-size:84.27px;letter-spacing:0.02em;}.cls-14{font-size:82.46px;letter-spacing:0.02em;}.cls-15{font-size:80.91px;letter-spacing:0.02em;}.cls-16{font-size:80.3px;letter-spacing:0.02em;}.cls-17{font-size:80.06px;letter-spacing:0.02em;}.cls-18{font-size:80.81px;letter-spacing:0.02em;}.cls-19{font-size:81.68px;letter-spacing:0.02em;}.cls-20{font-size:83.33px;letter-spacing:0.02em;}.cls-21{font-size:85.84px;letter-spacing:0.02em;}.cls-22{font-size:87.2px;letter-spacing:0.02em;}.cls-23{font-size:88.11px;letter-spacing:0.02em;}.cls-24{font-size:89.39px;letter-spacing:0.02em;}.cls-25{font-size:90.4px;letter-spacing:0.02em;}.cls-26{font-size:90.92px;letter-spacing:0.02em;}.cls-27{font-size:90.85px;letter-spacing:0.02em;}.cls-28{font-size:91.28px;letter-spacing:0.02em;}.cls-29{font-size:91.23px;letter-spacing:0.02em;}</style></defs><g id="Capa_2" data-name="Capa 2"><g id="Capa_1-2" data-name="Capa 1"><path class="cls-1" d="M0,682.62,40.3,831l30.22,4L104,846.24l21.77,10.86,74.1,48.44,37.7,18,30.48,6.12h30.39l34.19-8.23,16.77-8.93a90.82,90.82,0,0,0,12.1-10.09,87.67,87.67,0,0,0,7.74-8.78,22.06,22.06,0,0,0-4.21-1.12,23.48,23.48,0,0,0-12.41,1.5l-21.28,5.86-18.67,4.92L297.21,906l-29.44-3-14.66-5.26-3.79-2.52,11.26-2.47,16.9,2.77,27.41,2.78,37.41-4.93L408.09,866l14.83-12.7-1.81-5.64a50.76,50.76,0,0,0-23.66,3.86l-20.63,6.24-18.71,5.7L331.71,870l-22.66,1.3-29.31-3.75L268.05,864c1-1.6,3.41-4.94,7.5-5.9a17.06,17.06,0,0,1,6.13,0,30,30,0,0,1,4.17.78l10.93,1.78,13.27,1,22-.31a109.44,109.44,0,0,0,19.49-1.64A108.3,108.3,0,0,0,371,854.4l18.66-6.81,12.11-5,13.75-5s9.17-1.88,12.77-6.57l3.6-4.69a18.43,18.43,0,0,0,1-4.76,18.71,18.71,0,0,0-.43-5.56,13.22,13.22,0,0,0-6.12-2.42A13.46,13.46,0,0,0,418.5,815l-11.95,4.22-16.14,8.64-4.62,1.67L371,832.58l-20.78,2.89-23.75,3-17-.39L288,837.66l-12-6.65c6.48-.58,13.26-1,20.31-1.32,10-.41,19.54-.42,28.49-.16a222.81,222.81,0,0,0,34.87-3.44A220.53,220.53,0,0,0,385.1,820l11.95-5.78,21.42-9.05,4.26-4.75q1-3.54,2.08-7.08l-2-2.67L323.05,790l-48.42-.85L251.23,788l-23.07-3.41a86,86,0,0,1-18.37-5.13c-7.58-3.06-17.07-6.89-17.28-12.41-.08-2.18,1.43-4,4.45-7.61a41,41,0,0,1,9.1-8.07l21.28-12.89,21-7.76a94.22,94.22,0,0,1,13.26-3.57,95.74,95.74,0,0,1,17.71-1.71l23.89-.62c3.34-.15,8.46-.35,14.79-.46,5.5-.1,7.34,0,10.23-.31a62.77,62.77,0,0,0,15.6-3.5,14.79,14.79,0,0,0,3.9-2.71,14.18,14.18,0,0,0,2.6-3.42l1.95-4.74a24.43,24.43,0,0,0-5.68-4.57,25.42,25.42,0,0,0-9.27-3.19c-7.16-1.78-15.09-3.42-23.72-4.73-8.13-1.23-15.75-2-22.76-2.41-4.89-1-10.18-2.38-15.75-4.11a180.12,180.12,0,0,1-17.72-6.52c-4.81-.92-10.08-1.73-15.76-2.33-6.24-.65-12.06-.95-17.39-1s-11.23-.25-17.37,0c-7.28.24-14.07.8-20.32,1.53l-13.82,1.86-16.25,2.18-40.78,5.89L75.41,695A222.17,222.17,0,0,1,0,682.62Z"/><path class="cls-1" d="M859.09,682.62,818.79,831l-30.23,4-33.47,11.18L733.31,857.1l-74.1,48.44-37.69,18L591,929.66H560.65l-34.19-8.23-16.77-8.93a90.82,90.82,0,0,1-12.1-10.09,87.67,87.67,0,0,1-7.74-8.78,22.06,22.06,0,0,1,4.21-1.12,23.44,23.44,0,0,1,12.4,1.5l21.29,5.86,18.67,4.92L561.88,906l29.44-3L606,897.77l3.79-2.52-11.27-2.47-16.89,2.77-27.41,2.78-37.42-4.93L451,866l-14.82-12.7,1.81-5.64a50.76,50.76,0,0,1,23.66,3.86l20.63,6.24,18.7,5.7L527.38,870l22.66,1.3,29.31-3.75L591,864c-1-1.6-3.41-4.94-7.5-5.9a17.06,17.06,0,0,0-6.13,0,30,30,0,0,0-4.17.78l-10.93,1.78-13.28,1-22-.31a109.25,109.25,0,0,1-39-7l-18.66-6.81-12.11-5-13.75-5s-9.17-1.88-12.77-6.57l-3.61-4.69a18.86,18.86,0,0,1-1-4.76,18.66,18.66,0,0,1,.44-5.56,13.17,13.17,0,0,1,6.11-2.42,13.5,13.5,0,0,1,7.86,1.41l12,4.22,16.13,8.64,4.63,1.67,14.77,3.06,20.79,2.89,23.74,3,17-.39,21.45-.47L583,831c-6.48-.58-13.26-1-20.31-1.32-10-.41-19.54-.42-28.49-.16A222.28,222.28,0,0,1,474,820L462,814.21l-21.42-9.05-4.26-4.75q-1-3.54-2.08-7.08l2-2.67L536,790l48.42-.85,23.4-1.24,23.07-3.41a85.75,85.75,0,0,0,18.36-5.13c7.59-3.06,17.08-6.89,17.29-12.41.08-2.18-1.43-4-4.45-7.61a41.18,41.18,0,0,0-9.1-8.07l-21.28-12.89-21-7.76a94.22,94.22,0,0,0-13.26-3.57,95.74,95.74,0,0,0-17.71-1.71l-23.89-.62c-3.35-.15-8.47-.35-14.79-.46-5.5-.1-7.35,0-10.24-.31a62.71,62.71,0,0,1-15.59-3.5,15,15,0,0,1-3.91-2.71,14.73,14.73,0,0,1-2.6-3.42q-1-2.37-1.94-4.74a24.43,24.43,0,0,1,5.68-4.57,25.36,25.36,0,0,1,9.27-3.19c7.15-1.78,15.08-3.42,23.72-4.73,8.12-1.23,15.75-2,22.76-2.41,4.89-1,10.17-2.38,15.75-4.11a178.94,178.94,0,0,0,17.71-6.52c4.82-.92,10.09-1.73,15.77-2.33,6.23-.65,12.06-.95,17.39-1s11.23-.25,17.37,0c7.28.24,14.07.8,20.32,1.53l13.81,1.86,16.25,2.18,40.79,5.89,40.3,2.8a222.17,222.17,0,0,0,75.41-12.35Z"/><rect class="cls-2" x="127.57" y="114.66" width="604" height="573" rx="286.5"/><polygon class="cls-3" points="279.28 475.22 288.87 466.38 299.94 466.85 315.15 477.03 326.14 477.51 329.86 483.66 334.57 483.66 334.57 487.69 315.84 488.32 307.63 479.8 303.66 476.72 298.38 474.66 292.01 474.66 288.87 474.58 287.71 477.03 280.19 477.35 279.28 475.22"/><path class="cls-3" d="M383.55,280.34l6-.18v4.75l2.33,1.81,5.67-1.38,2.15,1.38.52,7.84s-.17-.78,2.75,1.38l2.93,2.16.43,7.58-3.27,2h-6.71l-4.56-5-7.14-.08-3.1.95v3.1l-2.66-.26-.61-10.86,4.13-4.4L384,280.94"/><path class="cls-3" d="M307.12,440.54s-4.69,1.63-.4,4.87l4.29,3.25h4.62l.48-4.72Z"/><path class="cls-3" d="M310,458.25s-5.51,1.63-1.62,4.34.4,4.56,3.89,2.7l3.48-1.85s4.61-.85-.57-3Z"/><path class="cls-3" d="M316.57,494.85l9.24-.47s10.69,5.57.48,6.58l-10.2,1,.48-5.41Z"/><path class="cls-3" d="M336.87,492.64l-.65,5h15.07l4-4.64,6.23-.77v-3.17l-6-.39s7-2.48-4.21-3.17l-11.18-.7-2,2.55Z"/><polygon class="cls-3" points="368.27 490.66 374.42 490.66 374.91 495.77 369.73 496.47 368.27 490.66"/><polygon class="cls-3" points="384.64 492.76 392.57 492.29 392.57 496.47 385.61 497.17 384.64 492.76"/><path class="cls-3" d="M392.85,501.09l6.72-.07v5.64H393.5Z"/><path class="cls-3" d="M398.82,509.55l3.07-.55s5.43,3.87,1.06,4l-4.38.08v-3.37"/><path class="cls-3" d="M399,516.59l4.62-.16s4.94,3.33,0,3.48l-4.94.16Z"/><polygon class="cls-3" points="408.36 518.25 413.46 517.75 413.86 524.01 407.3 525.56 408.36 518.25"/><path class="cls-3" d="M193.68,223.35l5.1,4.88a84.77,84.77,0,0,1,9.11-8.83,12.74,12.74,0,0,0,3.65-3.9c1.55-2.79,1-5,2.19-5.46.73-.3,2.15,0,5.2,3.34a84.83,84.83,0,0,0-6,8.57c-4.86,7.93-4.15,9.64-8.63,16.09-2.61,3.77-4.24,5.17-6.62,9.65a50.49,50.49,0,0,0-3,6.74,169.49,169.49,0,0,0-11.41,25.5A166.93,166.93,0,0,0,177.83,299q-7,16.54-14,33.11a146.94,146.94,0,0,0-2.19,15.74,143.51,143.51,0,0,0-.48,14.87l2.67,16.1A63.51,63.51,0,0,0,165,395.72a64.66,64.66,0,0,0,6.37,17.54l.85,12.43a40,40,0,0,0,2.47,15.86,41.36,41.36,0,0,0,8.42,13.63l3.57,7.75,4.86,4.33a1.75,1.75,0,0,0,1.7-.56,1.57,1.57,0,0,0,.24-1.6,26.07,26.07,0,0,1-3.1-6.12c-1-2.89-.64-3.52-1.7-5.75s-1.92-2.68-4.37-6.1c-1.33-1.85-2.29-3.4-2.86-4.36l.55-7.9,3.62-.37q2.38,8.4,4.76,16.81,4,8,8,15.95l2.27,10.23,7.77,10.17h4.91l1.28,5.8L227.3,506l17.55,6.7h9.52s11.22,10.09,19.15,11.36l7.92,1.26,19.8,22.38h5.68l3.23,4h6.12s.64,5.23,5.47,4.93l4.83-.31v-5.16l5.52.31,8.12,11.47,2.92,14.89a7.8,7.8,0,0,0-2.44,1.9,8.18,8.18,0,0,0-1.78,6.16,7.69,7.69,0,0,0-.41,6.51,7.8,7.8,0,0,0,3.41,3.72,19.47,19.47,0,0,0,1.58,8.14,20.59,20.59,0,0,0,5.8,7.68l18.83,15.19,16.23,10.85,10.06,2.17,4.22,3.1s13.64,6.83,18.18,13.34l4.54,6.51L433,673.91l4.54,7.75h30.51c-.09-1-.19-2.36-.2-4.07a8.56,8.56,0,0,1,.2-2.75c1.09-2.44,6.87-2.23,8.12-2.17a59.79,59.79,0,0,0,6.32-6.5,59,59,0,0,0,8-12.41l11-3.41,6.81-8.38,8.44-28.21,14.94-16.44s4.53-2,4.75-5.31c.12-1.91-1.21-3.52-4.75-6.47a90.19,90.19,0,0,0-12.83-8.88h-23.8s-4.4-2.68-6.6-4h-11c-4.58,1.86-9.15,3.47-13.73,5.08a23.59,23.59,0,0,0-.61-14.5,24.79,24.79,0,0,0-8.34-11.07l-21.05-1.23L426,545.83l-10.69-4.18L410,533.79c.16-6-1-7.72-2.17-8.15-1.65-.61-3.26,1.46-6.56,2.44a12.86,12.86,0,0,1-5.26.37l-12.87,2.74c-4.26,2.64-6.25,2.65-7.26,2s-.87-2.12-2.19-3.13-3.51-.88-5.22-.47l-2.79-6.18a5.61,5.61,0,0,0-2.8.73c-4.43,2.63-2.83,11.5-3.84,11.62-.42,0-1.19-1.41-2.76-8q2.52-7.54,1.5-8c-.33-.15-.94.25-1.82,1.2a39.88,39.88,0,0,1-3.65,6c-.5.68-1,1.32-1.51,1.92l-1.72,1.51-10.61,6.89a7.48,7.48,0,0,1-1,4.18,7.86,7.86,0,0,1-3.16,3l-10.77-1.55-17.17-9.59a24.64,24.64,0,0,1-5.1-10.91c-.94-5.3.61-8.28-1.7-10.21-2-1.7-4.58-.55-9-3A16.76,16.76,0,0,1,288,507.3q-4,4.8-6.56,4.18c-3.32-.8-4.86-8.38-4.84-22.74V477.83c-4.64.46-9.49.93-14.35,1.39,1.32,8.59-1.24,15.39-5.35,16.71-4.64,1.49-10.3-4.31-12.88-7-6.92-7.12-9-15.73-9.71-21.35q-2-4.77-3.89-9.52c.23-3.74.4-7.61.48-11.61,0-2,.06-4,.06-5.94l14.81-11.49,13.07,3,2.6-.92,2.26-7,3.75-1.62,20.23,9.21a32.57,32.57,0,0,1,4.45,9.12A31.87,31.87,0,0,1,293.48,451a7.44,7.44,0,0,0,6.15,2.71,6.82,6.82,0,0,0,4.21-2.09,19.22,19.22,0,0,0,.17-7.19,20.24,20.24,0,0,0-5-10.14Q297,427.63,295.1,421l19.43-25.37,1-16.4-5.19-9.29,10-2.16,1.95-16.09,15.55.3.65-17,11.68-9.28,6.78,6.5L377.57,317V308.5l-7-2.85-1,10.46L360,312.94l-3-11.41,12.27-4.75.33-3.17L355,296.14l-5.28,4.44-4.67,1.58-4.32,4.76-5.3,6.33A16.43,16.43,0,0,1,342.74,298l8.63-5.7,10.28-.32,8.29-4.75,11.61-6.65,9.95-.95,1-5.07-8-7.61-.33-3.8-14.6-13.63-9.29-20-10.58,4.12-2,2.85-3,7-1.65-13.62,4.64-1.91.33-5.07-7.63.32-5.31-6.34-15.59.64-7.63,13.94L309.57,241v14.3l-1.27,13,.64,8.48-3.81,8.49-3.81,12.73-1.9-14.24-.95-18.19L282.6,252.89l-6-1.82V237.53l6.95-8.35,9.47-6.81,2.53-8.36s-.32-4.64,5.37-3.09l5.68,1.55v4l6.63-.93,5.69-5s-4.11-6.8-3.16-9.89l.95-3.1L328.05,193l3.15-9.59,3.79-3.72h5.58v14.86l-10.85,6.81s-13.65-2.79-1.4,5.26l12.25,8L357,222.37l5.6-4.33-8.05-2.48V212l6.67-.93-1-9-10.34-3.41,1.59-3.41,6.16.31,4.21,5.89,4.68-.62v-12.4l-9.22-5.26.65-10.54-.32-5h-3.56l-1-6.82-11.33-2.17-18.47,2.17-1.62-8.37-18.14,6.82L297.75,172l-5.18,3.41L280.26,168l8.09-7.12-.64-5.27-4.86-3.1-15.23,8.68-19.76,12.08L231,187.48l-17.5,15.19Z"/><path class="cls-3" d="M327.05,150.81l8.18-5s.08,3.56,10.69-.78l10.6-4.33,1.46-3,10.45-.46,5.83-6.27,6.56-.85,2-5.41h5.26l7.53,4h31.1l1.13,4.28-22.92.92-6.88-.69-9.47,1.39-.73,1.32,7.61.23,10.45,5.41,7,1.47s-2.27,3.48,2.92,6.19l5.18,2.71,2.35,3.17,6.32,1.08,1.86,6.27,1,6.35-6.64,5.1-2.59,9.29-5.19,3.09.65,33.11-.08,1.16s5.91,12.38-12.79-2.55L387.14,203l.89-9.13-2.51-4.8-2.59-5.49,1.21-5,1.3-4.18-7.13-1.7-2.83-5.26-.33-4.57,1.46-4.72L374.18,155l-2-4.33-1.38-3.48L363.33,149l-6.16,3.63-4.94,3.56-10.85.31-11.9.23Z"/><path class="cls-3" d="M479.5,174a10.36,10.36,0,0,0,3.78.13,5.07,5.07,0,0,0,2.88-1.06,3.85,3.85,0,0,0,1.17-2.38l1.28-2,4.67-.25a3.35,3.35,0,0,1,1.29.09c1.49.41,2,2,2.78,2.54l4.62,3.54,1.94,1.74,1.1,6.32-.43,2.55-7.1,1.34-7.29-.29-5.17-7-5.28-1.51Z"/><path class="cls-3" d="M504.34,126.5a16.5,16.5,0,0,1-5.43,1.7c-4.5.5-6.4-1.48-8.82-.07-1.57.9-1.29,2-3.81,3.71-1.58,1-2.49,1.14-2.51,1.7,0,.89,2.24,1.75,6.32,3.25,2.6,1,3.24,1.05,3.88,1.86,1.24,1.56.23,2.95,1.38,4.25.34.39.94.84,5.34,1.24s5.17.1,7.05.85a15,15,0,0,1,3.24,2,28.06,28.06,0,0,1,5.18,4.72c2.05,2.41,1.82,3,3.08,3.79,2.21,1.38,4.61.6,6.32.54,8.74-.27,11.83,18.18,22.84,19.89,4.32.67,6.76-1.73,10.28.38a14.54,14.54,0,0,1,5.75,7c.59,1.6.54,2.53,1.54,3.32,1.67,1.34,5.06,1.34,6.56-.23,2.2-2.3-1-6.54,1.05-8.43,1.26-1.13,4-1.06,5.51.15,3,2.45-1.46,7.63.89,12.54,3,6.36,13.39,3.51,17,10.13,2.72,5-1.46,9.69,2.26,13.39,2.55,2.52,5.57,1.39,7,4.1,1.66,3-.91,6.66,1.22,8.43,1,.8,1.7.23,2.59,1.08,2.1,2-.05,7.16-.33,7.82-1.4,3.36-2.9,3.7-3.07,6.11,0,.28-.22,3.54,1.86,5.1,3.35,2.52,8.74-2.32,12.15,0,2.26,1.55.4,4,3.24,8.2,2.17,3.19,4,2.87,5.58,6,.26.52,2.39,4.89.49,7.27-2.39,3-8.71-.25-11.58,2.71-2.05,2.11-1,6-.24,8.59,2.72,9.79,9,10.36,12.47,19.49,2.64,7.06,0,9.68,3.16,12.85,4.52,4.48,15.23,4.53,20.24-.39,3.21-3.15,2.44-9.5.89-22.2-1.48-12.24-4.36-18.21-6.88-19.73a5.58,5.58,0,0,1-2.51-2.79,3.51,3.51,0,0,1,.16-2.86c.63-1,1.46-.75,2.27-1.55,1.79-1.77-.62-4.8,1.29-7.66.32-.47,1-1.49,1.87-1.47,1.83.06,1.6,4.71,4.78,6.35,2.16,1.11,3.56-.38,6.39.62,1.6.56,2.79,1.61,4.78,4.33,5.56,7.58,5,11.29,9.07,13.31,2.36,1.18,5.23,1.26,5.75.38,1-1.68-6.67-6.95-5.42-9a1.7,1.7,0,0,1,1.29-.62c3-.16,4.08,7.08,7.53,7.58,2.16.32,4.73-2.07,5.67-4.1,3.06-6.56-7.45-16.86-14.58-24.21-30.69-31.66-22.4-33-47.29-54.86a299.39,299.39,0,0,0-36-26.69c-3-1.93-11.76-7.06-29.32-17.33,0,0-12-7-36.6-18.49C525.13,129.57,511.66,123.42,504.34,126.5Z"/><path class="cls-3" d="M555.68,192.57c2.07-1.56,5.63-.3,8,.62,18.5,7.1,37.95,20.69,40.9,30.71a10,10,0,0,1,.24,4.95,10.54,10.54,0,0,1-6.31,7.35c-1,.41-3.31,1.33-4.46.39-1.45-1.19.66-3.93-.81-6s-6.32-2.58-7.53-1c-1.08,1.39,1.3,3.47.24,5.18-1.28,2.09-6.84,2.34-8.5.16s1.59-5.17,0-7.51-5.82,0-8.91-2.47c-3.62-2.9-4.14-11.25-1.29-16.63.54-1,1.13-1.81.81-2.63-1-2.61-8.75.09-12.31-3.56C553.26,199.52,553.34,194.35,555.68,192.57Z"/><path class="cls-3" d="M676.11,287.57c2.37-.23,5.85,4.87,6.56,10,.51,3.71-.75,5.14.73,7.2s3,1.28,6.07,4c2.14,1.88,2.15,2.84,3.87,3.54s4.53.87,5.61-.44-.67-3.26-1.38-9c-.6-4.81.38-6,1-6.5a3.72,3.72,0,0,1,2.84-.77c3.39.58,4.22,7,7.77,18.41,1.87,6,1.91,5.08,3.57,10.37A178.57,178.57,0,0,1,719,354.34a352.65,352.65,0,0,1,2.35,63.75c-1.46,20.43-4.54,34-10.2,58.87,0,0-7.78,34.19-25,55.32-1,1.21-3.91,4.79-4.78,4.33-1.36-.72,2.53-11.41,7.46-20.5,3.8-7,5.6-8.27,6.66-13.31,1.09-5.19-.28-6.47,1.43-11.52,1.82-5.34,4.48-7.26,3.41-9.91-.86-2.12-3.67-3.61-6.16-3.56-5.42.13-9.5,7.66-11.18,10.76-2.77,5.12-2.65,8-6.15,10.29a8.85,8.85,0,0,1-6.07,1.62c-1.25-.21-3.52-1-7.21-7a49.94,49.94,0,0,1-5.67-13.15,35.73,35.73,0,0,1-9.56-15.32c-3.16-10.82,2.19-14.75.81-30.56-.83-9.59-3-10.35-3.64-22.13-.39-7.07.46-5.56.24-16.4-.16-8.25-.79-15.78,1.46-22,1.09-3,1.87-5.15,4-7.19,1.52-1.49,2.69-1.91,3.07-3.25.74-2.58-2.31-5.39-3.32-6.42-8.43-8.65-7.46-29.09-.72-36.52,1.71-1.89,3.18-3.51,5.75-4.49,3-1.14,5.27-.53,6.8-2.24.84-.95.87-1.93,1-4.18.51-6.21.77-9.32,1.62-10.83,1.64-2.9,3.38-1.94,6.72-6C674.81,289.57,674.73,287.71,676.11,287.57Z"/><text class="cls-4" transform="matrix(-0.15, -0.86, 0.98, -0.18, 100.07, 480.11)">O</text><text class="cls-5" transform="matrix(-0.04, -0.88, 1, -0.09, 91.46, 432.17)">R</text><text class="cls-6" transform="matrix(0.01, -0.88, 1, -0.04, 88.34, 390.3)">P</text><text class="cls-7" transform="matrix(0.18, -0.89, 0.99, 0.11, 87.6, 353.22)">O</text><text class="cls-8" transform="matrix(-0.35, -0.81, 0.93, -0.35, 122.51, 517.15)">C</text><text class="cls-9" transform="matrix(0.32, -0.87, 0.97, 0.24, 95.84, 304.38)">R</text><text class="cls-10" transform="matrix(0.43, -0.85, 0.94, 0.33, 111.81, 265.02)">A</text><text class="cls-11" transform="matrix(0.6, -0.8, 0.87, 0.49, 128.08, 227.21)">C</text><text class="cls-12" transform="matrix(0.63, -0.79, 0.86, 0.52, 156.8, 187.29)">I</text><text class="cls-13" transform="matrix(0.73, -0.74, 0.8, 0.61, 167.07, 173.97)">Ó</text><text class="cls-14" transform="matrix(0.87, -0.64, 0.67, 0.74, 203.71, 135.4)">N</text><text class="cls-15" transform="matrix(1.06, -0.37, 0.39, 0.92, 269.61, 95.92)">S</text><text class="cls-16" transform="matrix(1.11, -0.25, 0.26, 0.96, 306.39, 83.46)">O</text><text class="cls-17" transform="matrix(1.14, -0.03, 0.01, 1, 358.42, 70.08)">C</text><text class="cls-17" transform="matrix(1.14, -0.03, 0.01, 1, 409.69, 68.74)">I</text><text class="cls-17" transform="matrix(1.14, -0.03, 0.01, 1, 429.54, 68.23)">E</text><text class="cls-18" transform="matrix(1.11, 0.16, -0.21, 0.98, 471.05, 67.14)">D</text><text class="cls-19" transform="matrix(1.06, 0.28, -0.34, 0.94, 519.86, 73.91)">A</text><text class="cls-20" transform="matrix(0.97, 0.43, -0.51, 0.86, 571.45, 88.04)">D</text><text class="cls-21" transform="matrix(0.75, 0.66, -0.75, 0.66, 648.21, 131.23)">P</text><text class="cls-22" transform="matrix(0.64, 0.72, -0.83, 0.56, 673.45, 154.65)">R</text><text class="cls-23" transform="matrix(0.56, 0.76, -0.87, 0.49, 699.95, 181.67)">O</text><text class="cls-24" transform="matrix(0.43, 0.81, -0.93, 0.38, 728.31, 221.94)">S</text><text class="cls-25" transform="matrix(0.3, 0.85, -0.97, 0.26, 743.9, 254.9)">P</text><text class="cls-26" transform="matrix(0.19, 0.86, -0.99, 0.17, 755.84, 286.81)">E</text><text class="cls-27" transform="matrix(-0.21, 0.86, -0.98, -0.18, 762.49, 411.78)">R</text><text class="cls-28" transform="matrix(0.05, 0.88, -1, 0.05, 763.11, 322.28)">R</text><text class="cls-29" transform="matrix(-0.09, 0.87, -1, -0.08, 766.17, 365.67)">A</text></g></g></svg>